<svg id="Capa_1" data-name="Capa 1" xmlns="http://www.w3.org/2000/svg" viewBox="0 0 1044.98 512.6"><defs><style>.cls-1{fill:#d96aa6;}.cls-2{fill:#487dbf;}.cls-3{fill:#d56582;}.cls-4{fill:#aecd56;}.cls-5{fill:#f3c856;}.cls-6{fill:#5f8f6d;}.cls-7{fill:#f5e842;}.cls-8{fill:#020202;}.cls-9{fill:#1d1d1b;}</style></defs><polygon class="cls-1" points="164 0 194 0 241 129 291 0 321 0 254 164 229 164 164 0"/><polygon class="cls-2" points="352.98 6.01 374.19 27.22 316.2 151.67 442.78 95.81 463.99 117.03 300.65 185.61 282.97 167.94 352.98 6.01"/><polygon class="cls-3" points="19.01 124.03 40.22 102.81 164.67 160.79 108.81 34.22 130.03 13.01 198.61 176.35 180.94 194.03 19.01 124.03"/><polygon class="cls-4" points="485 151 485 181 356 228 485 278 485 308 321 241 321 216 485 151"/><polygon class="cls-5" points="0 308 0 278 129 231 0 181 0 151 164 218 164 243 0 308"/><polygon class="cls-6" points="462.58 335.49 441.36 356.7 316.91 298.71 372.77 425.29 351.56 446.5 282.97 283.16 300.65 265.48 462.58 335.49"/><polygon class="cls-7" points="134.03 445.79 112.81 424.58 170.79 300.13 44.22 355.99 23.01 334.78 186.35 266.19 204.03 283.87 134.03 445.79"/><polygon class="cls-8" points="219 291 303 511 353 511 260 291 219 291"/><polygon class="cls-8" points="179 511 129 511 219 291 260 291 179 511"/><polygon class="cls-8" points="267.76 418.71 212.98 418.71 198.61 457.73 282.97 458.54 267.76 418.71"/><path class="cls-9" d="M416.13,448.67c0-10.23,7.83-17.48,18.48-17.48,6.2,0,11.19,2.26,14.45,6.34L443,443a9.93,9.93,0,0,0-7.92-3.93c-5.52,0-9.36,3.84-9.36,9.6s3.84,9.6,9.36,9.6a9.91,9.91,0,0,0,7.92-3.94l6.05,5.48c-3.26,4.08-8.25,6.33-14.45,6.33C424,466.14,416.13,458.89,416.13,448.67Z" transform="translate(-21.5 -11.15)"/><path class="cls-9" d="M450.84,448.67c0-10.08,7.92-17.48,18.67-17.48s18.67,7.4,18.67,17.48-7.92,17.47-18.67,17.47S450.84,458.75,450.84,448.67Zm27.74,0c0-5.81-4-9.6-9.07-9.6s-9.07,3.79-9.07,9.6,4,9.6,9.07,9.6S478.58,454.48,478.58,448.67Z" transform="translate(-21.5 -11.15)"/><path class="cls-9" d="M525.14,431.87v33.6h-7.82l-14.84-17.91v17.91h-9.31v-33.6H501l14.83,17.9v-17.9Z" transform="translate(-21.5 -11.15)"/><path class="cls-9" d="M541.36,439.21v7.39H556.2V454H541.36v11.52h-9.5v-33.6h26.35v7.34Z" transform="translate(-21.5 -11.15)"/><path class="cls-9" d="M589.65,458.12v7.35h-27v-33.6H589v7.34H572.08v5.67H587V452H572.08v6.14Z" transform="translate(-21.5 -11.15)"/><path class="cls-9" d="M594.93,431.87h15.89c11.14,0,18.77,6.48,18.77,16.8s-7.63,16.8-18.77,16.8H594.93Zm15.51,26c5.71,0,9.55-3.4,9.55-9.21s-3.84-9.22-9.55-9.22h-6v18.43Z" transform="translate(-21.5 -11.15)"/><path class="cls-9" d="M661.56,458.12v7.35h-27v-33.6h26.35v7.34H644v5.67h14.93V452H644v6.14Z" transform="translate(-21.5 -11.15)"/><path class="cls-9" d="M681.52,456.54h-5.18v8.93h-9.51v-33.6H682.2c9.17,0,14.93,4.75,14.93,12.43a11.16,11.16,0,0,1-6.58,10.61l7.25,10.56H687.62Zm.1-17.18h-5.28v9.84h5.28c3.94,0,5.9-1.83,5.9-4.9S685.56,439.36,681.62,439.36Z" transform="translate(-21.5 -11.15)"/><path class="cls-9" d="M724.87,458.94H710.66L708,465.47h-9.7l14.84-33.6h9.36l14.88,33.6h-9.89Zm-2.79-7-4.32-10.75-4.32,10.75Z" transform="translate(-21.5 -11.15)"/><path class="cls-9" d="M737.87,448.67c0-10.23,7.83-17.48,18.49-17.48,6.19,0,11.18,2.26,14.44,6.34l-6,5.47a10,10,0,0,0-7.92-3.93c-5.52,0-9.36,3.84-9.36,9.6s3.84,9.6,9.36,9.6a9.94,9.94,0,0,0,7.92-3.94l6,5.48c-3.26,4.08-8.25,6.33-14.44,6.33C745.7,466.14,737.87,458.89,737.87,448.67Z" transform="translate(-21.5 -11.15)"/><path class="cls-9" d="M775,431.87h9.5v33.6H775Z" transform="translate(-21.5 -11.15)"/><path class="cls-9" d="M789.57,448.67c0-10.08,7.92-17.48,18.67-17.48s18.68,7.4,18.68,17.48-7.92,17.47-18.68,17.47S789.57,458.75,789.57,448.67Zm27.75,0c0-5.81-4-9.6-9.08-9.6s-9.07,3.79-9.07,9.6,4,9.6,9.07,9.6S817.32,454.48,817.32,448.67ZM810,421.83h9.12l-9,7.3h-6.53Z" transform="translate(-21.5 -11.15)"/><path class="cls-9" d="M863.88,431.87v33.6h-7.83l-14.83-17.91v17.91h-9.31v-33.6h7.82l14.83,17.9v-17.9Z" transform="translate(-21.5 -11.15)"/><path class="cls-9" d="M432.55,514.14h-5.18v8.93h-9.51v-33.6h15.36c9.17,0,14.93,4.75,14.93,12.43a11.16,11.16,0,0,1-6.58,10.61l7.25,10.56H438.65Zm.1-17.18h-5.28v9.84h5.28c3.93,0,5.9-1.83,5.9-4.9S436.58,497,432.65,497Z" transform="translate(-21.5 -11.15)"/><path class="cls-9" d="M480.36,515.73v7.34h-27v-33.6h26.35v7.34H462.79v5.67h14.93v7.1H462.79v6.15Z" transform="translate(-21.5 -11.15)"/><path class="cls-9" d="M485.64,489.47h15.89c11.13,0,18.76,6.48,18.76,16.8s-7.63,16.8-18.76,16.8H485.64Zm15.5,26c5.71,0,9.55-3.41,9.55-9.22s-3.84-9.22-9.55-9.22h-6v18.44Z" transform="translate(-21.5 -11.15)"/><path class="cls-9" d="M573.33,489.47l-14.4,33.6h-9.36l-14.35-33.6h10.27l9.12,21.89,9.31-21.89Z" transform="translate(-21.5 -11.15)"/><path class="cls-9" d="M602.28,515.73v7.34h-27v-33.6h26.35v7.34H584.71v5.67h14.93v7.1H584.71v6.15Z" transform="translate(-21.5 -11.15)"/><path class="cls-9" d="M605.78,506.27c0-10.23,7.82-17.48,18.48-17.48,6.19,0,11.19,2.26,14.45,6.34l-6.05,5.47a9.93,9.93,0,0,0-7.92-3.93c-5.52,0-9.36,3.84-9.36,9.6s3.84,9.6,9.36,9.6a9.91,9.91,0,0,0,7.92-3.94l6.05,5.48c-3.26,4.08-8.26,6.33-14.45,6.33C613.6,523.74,605.78,516.49,605.78,506.27Z" transform="translate(-21.5 -11.15)"/><path class="cls-9" d="M642.93,489.47h9.51v33.6h-9.51Z" transform="translate(-21.5 -11.15)"/><path class="cls-9" d="M691.17,489.47v33.6h-7.82l-14.84-17.9v17.9H659.2v-33.6H667l14.83,17.9v-17.9Z" transform="translate(-21.5 -11.15)"/><path class="cls-9" d="M720.4,516.54H706.19l-2.64,6.53h-9.69l14.83-33.6h9.36l14.88,33.6H723Zm-2.78-7-4.32-10.75L709,509.53Z" transform="translate(-21.5 -11.15)"/><path class="cls-9" d="M735.62,489.47h9.5v26.06h16v7.54H735.62Z" transform="translate(-21.5 -11.15)"/><path class="cls-9" d="M801.38,516.54H787.17l-2.64,6.53h-9.7l14.84-33.6H799l14.88,33.6H804Zm-2.79-7-4.32-10.75L790,509.53Z" transform="translate(-21.5 -11.15)"/><path class="cls-9" d="M848.56,489.47v33.6h-7.82l-14.84-17.9v17.9h-9.31v-33.6h7.83l14.83,17.9v-17.9Z" transform="translate(-21.5 -11.15)"/><path class="cls-9" d="M855.28,489.47h15.89c11.14,0,18.77,6.48,18.77,16.8s-7.63,16.8-18.77,16.8H855.28Zm15.51,26c5.71,0,9.55-3.41,9.55-9.22s-3.84-9.22-9.55-9.22h-6v18.44Z" transform="translate(-21.5 -11.15)"/><path class="cls-9" d="M917,516.54H902.75l-2.64,6.53h-9.69l14.83-33.6h9.36l14.88,33.6H919.6Zm-2.78-7-4.32-10.75-4.32,10.75Z" transform="translate(-21.5 -11.15)"/><path class="cls-9" d="M932.18,489.47h9.5v26.06h16v7.54H932.18Z" transform="translate(-21.5 -11.15)"/><path class="cls-9" d="M960.83,508.09V489.47h9.51V507.8c0,5.77,2.4,8.07,6.38,8.07s6.34-2.3,6.34-8.07V489.47h9.36v18.62c0,10-5.86,15.65-15.8,15.65S960.83,518.13,960.83,508.09Z" transform="translate(-21.5 -11.15)"/><path class="cls-9" d="M1027.26,515.53v7.54H997.17v-6L1014.11,497H997.6v-7.53h28.94v5.95l-16.94,20.11Z" transform="translate(-21.5 -11.15)"/><path class="cls-9" d="M1054,516.54h-14.21l-2.64,6.53h-9.69l14.83-33.6h9.36l14.88,33.6h-9.89Zm-2.78-7-4.32-10.75-4.32,10.75Z" transform="translate(-21.5 -11.15)"/></svg>